<svg xmlns="http://www.w3.org/2000/svg" viewBox="0 0 1200 320" role="img" aria-label="AMC Dashboard horizontal logo">
  <defs>
    <linearGradient id="bg" x1="0" y1="0" x2="1" y2="1">
      <stop offset="0%" stop-color="#0F172A"/>
      <stop offset="100%" stop-color="#111827"/>
    </linearGradient>
    <linearGradient id="accent" x1="0" y1="0" x2="1" y2="1">
      <stop offset="0%" stop-color="#14B8A6"/>
      <stop offset="100%" stop-color="#22D3EE"/>
    </linearGradient>
    <linearGradient id="panel" x1="0" y1="0" x2="0" y2="1">
      <stop offset="0%" stop-color="#F8FAFC" stop-opacity="0.95"/>
      <stop offset="100%" stop-color="#E2E8F0" stop-opacity="0.9"/>
    </linearGradient>
  </defs>

  <rect x="20" y="20" width="280" height="280" rx="68" fill="url(#bg)"/>
  <rect x="20" y="20" width="280" height="280" rx="68" fill="none" stroke="#334155" stroke-width="2"/>

  <rect x="66" y="78" width="188" height="166" rx="30" fill="url(#panel)"/>
  <rect x="66" y="78" width="188" height="166" rx="30" fill="none" stroke="#FFFFFF" stroke-opacity="0.6" stroke-width="2"/>

  <rect x="90" y="176" width="24" height="42" rx="8" fill="#0F172A"/>
  <rect x="124" y="154" width="24" height="64" rx="8" fill="#0F172A"/>
  <rect x="158" y="132" width="24" height="86" rx="8" fill="url(#accent)"/>
  <rect x="192" y="112" width="24" height="106" rx="8" fill="#0F172A"/>

  <path d="M96 140C122 114 146 104 176 104C202 104 220 110 234 122" fill="none" stroke="#0EA5E9" stroke-width="8" stroke-linecap="round"/>
  <circle cx="234" cy="122" r="6" fill="#0EA5E9"/>

  <text x="340" y="146" fill="#0F172A" font-size="78" font-weight="800" font-family="ui-sans-serif, -apple-system, BlinkMacSystemFont, Segoe UI, Helvetica, Arial, sans-serif">AMC Dashboard</text>
  <text x="344" y="198" fill="#475569" font-size="30" font-weight="600" letter-spacing="3" font-family="ui-sans-serif, -apple-system, BlinkMacSystemFont, Segoe UI, Helvetica, Arial, sans-serif">HUMAN-AI COLLABORATION</text>

  <circle cx="1148" cy="78" r="10" fill="#22D3EE"/>
  <circle cx="1124" cy="228" r="6" fill="#14B8A6" opacity="0.7"/>
</svg>
