<svg xmlns="http://www.w3.org/2000/svg" viewBox="0 0 512 512" role="img" aria-label="AMC Dashboard logo">
  <defs>
    <linearGradient id="bg" x1="0" y1="0" x2="1" y2="1">
      <stop offset="0%" stop-color="#0F172A"/>
      <stop offset="55%" stop-color="#1E293B"/>
      <stop offset="100%" stop-color="#0B1220"/>
    </linearGradient>
    <linearGradient id="accent" x1="0" y1="0" x2="1" y2="1">
      <stop offset="0%" stop-color="#14B8A6"/>
      <stop offset="100%" stop-color="#22D3EE"/>
    </linearGradient>
    <linearGradient id="panel" x1="0" y1="0" x2="0" y2="1">
      <stop offset="0%" stop-color="#F8FAFC" stop-opacity="0.95"/>
      <stop offset="100%" stop-color="#E2E8F0" stop-opacity="0.88"/>
    </linearGradient>
    <filter id="glow" x="-20%" y="-20%" width="140%" height="140%">
      <feGaussianBlur stdDeviation="8" result="blur"/>
      <feMerge>
        <feMergeNode in="blur"/>
        <feMergeNode in="SourceGraphic"/>
      </feMerge>
    </filter>
  </defs>

  <rect x="24" y="24" width="464" height="464" rx="120" fill="url(#bg)"/>
  <rect x="24" y="24" width="464" height="464" rx="120" fill="none" stroke="#334155" stroke-width="2"/>

  <circle cx="406" cy="106" r="14" fill="#22D3EE" filter="url(#glow)"/>
  <circle cx="106" cy="406" r="10" fill="#14B8A6" opacity="0.75"/>

  <rect x="96" y="112" width="320" height="288" rx="52" fill="url(#panel)"/>
  <rect x="96" y="112" width="320" height="288" rx="52" fill="none" stroke="#FFFFFF" stroke-opacity="0.6" stroke-width="2"/>

  <rect x="136" y="280" width="44" height="72" rx="14" fill="#0F172A"/>
  <rect x="196" y="244" width="44" height="108" rx="14" fill="#0F172A"/>
  <rect x="256" y="208" width="44" height="144" rx="14" fill="url(#accent)"/>
  <rect x="316" y="176" width="44" height="176" rx="14" fill="#0F172A"/>

  <path d="M148 226C190 186 228 170 276 170C316 170 344 180 370 200" fill="none" stroke="#0EA5E9" stroke-width="12" stroke-linecap="round"/>
  <circle cx="370" cy="200" r="10" fill="#0EA5E9"/>

  <g opacity="0.96">
    <path d="M122 418h32l18-46 18 46h20l18-46 18 46h20l18-46 18 46h36" fill="none" stroke="#E2E8F0" stroke-width="8" stroke-linecap="round" stroke-linejoin="round"/>
  </g>
</svg>
